<svg width="152" height="152" viewBox="0 0 152 152" fill="none" xmlns="http://www.w3.org/2000/svg">
<path d="M103.944 88.0508H47.6878C41.0174 88.0508 35.6328 93.5452 35.6328 100.352C35.6328 107.158 41.0174 112.653 47.6878 112.653H103.944C110.615 112.653 115.999 107.158 115.999 100.352C115.999 93.5452 110.615 88.0508 103.944 88.0508ZM103.944 104.452H47.6878C45.4777 104.452 43.6695 102.607 43.6695 100.352C43.6695 98.0966 45.4777 96.2514 47.6878 96.2514H103.944C106.155 96.2514 107.963 98.0966 107.963 100.352C107.963 102.607 106.155 104.452 103.944 104.452ZM63.7611 42.947V75.7497C63.7611 78.0049 65.5694 79.8501 67.7795 79.8501H99.9261C102.136 79.8501 103.944 78.0049 103.944 75.7497V42.947C103.944 40.6918 102.136 38.8467 99.9261 38.8467H67.7795C65.5694 38.8467 63.7611 40.6918 63.7611 42.947ZM91.8895 59.3484H75.8161V51.2297H91.8895V59.3484ZM35.6328 63.5307H55.4834V71.3624H35.6328V63.5307ZM43.7097 51.2297H55.4834V59.2664H43.7097V51.2297Z" fill="white"/>
</svg>
