<svg width="150" height="150" viewBox="0 0 150 150" fill="none" xmlns="http://www.w3.org/2000/svg">
<path d="M22 96.0536C22 112.053 34.9471 125 50.9468 125C66.9464 125 79.8935 112.053 79.8935 96.0536V61.8438H22V96.0536ZM50.9468 106.58C43.6838 106.58 37.7891 103.053 37.7891 98.6851H64.1044C64.1044 103.053 58.2098 106.58 50.9468 106.58ZM64.1044 77.6329C66.9991 77.6329 69.3674 80.0013 69.3674 82.8959C69.3674 85.7906 66.9991 88.159 64.1044 88.159C61.2097 88.159 58.8413 85.7906 58.8413 82.8959C58.8413 80.0013 61.2097 77.6329 64.1044 77.6329ZM37.7891 77.6329C40.6838 77.6329 43.0522 80.0013 43.0522 82.8959C43.0522 85.7906 40.6838 88.159 37.7891 88.159C34.8945 88.159 32.5261 85.7906 32.5261 82.8959C32.5261 80.0013 34.8945 77.6329 37.7891 77.6329Z" fill="white"/>
<path d="M69.3711 25V56.5783H85.1602V69.7359C85.1602 65.3676 91.0549 61.8413 98.3179 61.8413C105.581 61.8413 111.475 65.3676 111.475 69.7359H85.1602V82.8935V84.9461C89.1075 86.9461 93.5811 88.1566 98.3179 88.1566C114.318 88.1566 127.265 75.2095 127.265 59.2098V25H69.3711ZM85.1602 51.7363C82.2656 51.7363 79.8972 49.3679 79.8972 46.4732C79.8972 43.5786 82.2656 41.2102 85.1602 41.2102C88.0549 41.2102 90.4233 43.5786 90.4233 46.4732C90.4233 49.4205 88.0549 51.7363 85.1602 51.7363ZM111.475 51.7363C108.581 51.7363 106.212 49.3679 106.212 46.4732C106.212 43.5786 108.581 41.2102 111.475 41.2102C114.37 41.2102 116.739 43.5786 116.739 46.4732C116.739 49.4205 114.37 51.7363 111.475 51.7363Z" fill="white"/>
</svg>
