<svg width="150" height="150" viewBox="0 0 150 150" fill="none" xmlns="http://www.w3.org/2000/svg">
<path d="M44.6214 80.1546C41.8523 80.1546 39.5867 82.3898 39.5867 85.1217C39.5867 87.8536 41.8523 90.0888 44.6214 90.0888C47.3905 90.0888 49.6561 87.8536 49.6561 85.1217C49.6561 82.3898 47.3905 80.1546 44.6214 80.1546ZM44.6214 100.023C41.8523 100.023 39.5867 102.258 39.5867 104.99C39.5867 107.722 41.8523 109.957 44.6214 109.957C47.3905 109.957 49.6561 107.722 49.6561 104.99C49.6561 102.258 47.3905 100.023 44.6214 100.023ZM44.6214 60.2862C41.8523 60.2862 39.5867 62.5214 39.5867 65.2533C39.5867 67.9852 41.8523 70.2204 44.6214 70.2204C47.3905 70.2204 49.6561 67.9852 49.6561 65.2533C49.6561 62.5214 47.3905 60.2862 44.6214 60.2862ZM29.5173 62.7697C28.1076 62.7697 27 63.8625 27 65.2533C27 66.6441 28.1076 67.7368 29.5173 67.7368C30.9271 67.7368 32.0347 66.6441 32.0347 65.2533C32.0347 63.8625 30.9271 62.7697 29.5173 62.7697ZM44.6214 40.4178C41.8523 40.4178 39.5867 42.653 39.5867 45.3849C39.5867 48.1168 41.8523 50.352 44.6214 50.352C47.3905 50.352 49.6561 48.1168 49.6561 45.3849C49.6561 42.653 47.3905 40.4178 44.6214 40.4178ZM120.142 67.7368C121.551 67.7368 122.659 66.6441 122.659 65.2533C122.659 63.8625 121.551 62.7697 120.142 62.7697C118.732 62.7697 117.624 63.8625 117.624 65.2533C117.624 66.6441 118.732 67.7368 120.142 67.7368ZM84.8989 50.352C87.668 50.352 89.9336 48.1168 89.9336 45.3849C89.9336 42.653 87.668 40.4178 84.8989 40.4178C82.1298 40.4178 79.8642 42.653 79.8642 45.3849C79.8642 48.1168 82.1298 50.352 84.8989 50.352ZM84.8989 32.9671C86.3086 32.9671 87.4162 31.8743 87.4162 30.4836C87.4162 29.0928 86.3086 28 84.8989 28C83.4892 28 82.3815 29.0928 82.3815 30.4836C82.3815 31.8743 83.4892 32.9671 84.8989 32.9671ZM29.5173 82.6382C28.1076 82.6382 27 83.7309 27 85.1217C27 86.5125 28.1076 87.6053 29.5173 87.6053C30.9271 87.6053 32.0347 86.5125 32.0347 85.1217C32.0347 83.7309 30.9271 82.6382 29.5173 82.6382ZM64.7601 117.408C63.3504 117.408 62.2428 118.501 62.2428 119.891C62.2428 121.282 63.3504 122.375 64.7601 122.375C66.1699 122.375 67.2775 121.282 67.2775 119.891C67.2775 118.501 66.1699 117.408 64.7601 117.408ZM64.7601 32.9671C66.1699 32.9671 67.2775 31.8743 67.2775 30.4836C67.2775 29.0928 66.1699 28 64.7601 28C63.3504 28 62.2428 29.0928 62.2428 30.4836C62.2428 31.8743 63.3504 32.9671 64.7601 32.9671ZM64.7601 50.352C67.5292 50.352 69.7948 48.1168 69.7948 45.3849C69.7948 42.653 67.5292 40.4178 64.7601 40.4178C61.9911 40.4178 59.7255 42.653 59.7255 45.3849C59.7255 48.1168 61.9911 50.352 64.7601 50.352ZM64.7601 77.6711C60.5813 77.6711 57.2081 80.999 57.2081 85.1217C57.2081 89.2444 60.5813 92.5724 64.7601 92.5724C68.9389 92.5724 72.3122 89.2444 72.3122 85.1217C72.3122 80.999 68.9389 77.6711 64.7601 77.6711ZM105.038 80.1546C102.269 80.1546 100.003 82.3898 100.003 85.1217C100.003 87.8536 102.269 90.0888 105.038 90.0888C107.807 90.0888 110.072 87.8536 110.072 85.1217C110.072 82.3898 107.807 80.1546 105.038 80.1546ZM105.038 100.023C102.269 100.023 100.003 102.258 100.003 104.99C100.003 107.722 102.269 109.957 105.038 109.957C107.807 109.957 110.072 107.722 110.072 104.99C110.072 102.258 107.807 100.023 105.038 100.023ZM105.038 60.2862C102.269 60.2862 100.003 62.5214 100.003 65.2533C100.003 67.9852 102.269 70.2204 105.038 70.2204C107.807 70.2204 110.072 67.9852 110.072 65.2533C110.072 62.5214 107.807 60.2862 105.038 60.2862ZM105.038 40.4178C102.269 40.4178 100.003 42.653 100.003 45.3849C100.003 48.1168 102.269 50.352 105.038 50.352C107.807 50.352 110.072 48.1168 110.072 45.3849C110.072 42.653 107.807 40.4178 105.038 40.4178ZM120.142 82.6382C118.732 82.6382 117.624 83.7309 117.624 85.1217C117.624 86.5125 118.732 87.6053 120.142 87.6053C121.551 87.6053 122.659 86.5125 122.659 85.1217C122.659 83.7309 121.551 82.6382 120.142 82.6382ZM84.8989 100.023C82.1298 100.023 79.8642 102.258 79.8642 104.99C79.8642 107.722 82.1298 109.957 84.8989 109.957C87.668 109.957 89.9336 107.722 89.9336 104.99C89.9336 102.258 87.668 100.023 84.8989 100.023ZM84.8989 117.408C83.4892 117.408 82.3815 118.501 82.3815 119.891C82.3815 121.282 83.4892 122.375 84.8989 122.375C86.3086 122.375 87.4162 121.282 87.4162 119.891C87.4162 118.501 86.3086 117.408 84.8989 117.408ZM64.7601 57.8026C60.5813 57.8026 57.2081 61.1306 57.2081 65.2533C57.2081 69.376 60.5813 72.7039 64.7601 72.7039C68.9389 72.7039 72.3122 69.376 72.3122 65.2533C72.3122 61.1306 68.9389 57.8026 64.7601 57.8026ZM64.7601 100.023C61.9911 100.023 59.7255 102.258 59.7255 104.99C59.7255 107.722 61.9911 109.957 64.7601 109.957C67.5292 109.957 69.7948 107.722 69.7948 104.99C69.7948 102.258 67.5292 100.023 64.7601 100.023ZM84.8989 77.6711C80.7201 77.6711 77.3469 80.999 77.3469 85.1217C77.3469 89.2444 80.7201 92.5724 84.8989 92.5724C89.0777 92.5724 92.4509 89.2444 92.4509 85.1217C92.4509 80.999 89.0777 77.6711 84.8989 77.6711ZM84.8989 57.8026C80.7201 57.8026 77.3469 61.1306 77.3469 65.2533C77.3469 69.376 80.7201 72.7039 84.8989 72.7039C89.0777 72.7039 92.4509 69.376 92.4509 65.2533C92.4509 61.1306 89.0777 57.8026 84.8989 57.8026Z" fill="white"/>
</svg>
