<svg width="152" height="152" viewBox="0 0 152 152" fill="none" xmlns="http://www.w3.org/2000/svg">
<path d="M104.28 47.72L98.64 53.36C104.4 59.16 108 67.16 108 76C108 93.68 93.68 108 76 108C58.32 108 44 93.68 44 76C44 59.68 56.2 46.24 72 44.28V52.36C60.64 54.28 52 64.12 52 76C52 89.24 62.76 100 76 100C89.24 100 100 89.24 100 76C100 69.36 97.32 63.36 92.96 59.04L87.32 64.68C90.2 67.6 92 71.6 92 76C92 84.84 84.84 92 76 92C67.16 92 60 84.84 60 76C60 68.56 65.12 62.36 72 60.56V69.12C69.6 70.52 68 73.04 68 76C68 80.4 71.6 84 76 84C80.4 84 84 80.4 84 76C84 73.04 82.4 70.48 80 69.12V36H76C53.92 36 36 53.92 36 76C36 98.08 53.92 116 76 116C98.08 116 116 98.08 116 76C116 64.96 111.52 54.96 104.28 47.72Z" fill="white"/>
</svg>
