<svg width="150" height="150" viewBox="0 0 150 150" fill="none" xmlns="http://www.w3.org/2000/svg">
<path d="M121.53 60.2225L116.541 39.2832C115.495 34.9708 111.789 32 107.465 32H41.4667C37.1903 32 33.4366 35.0187 32.4388 39.2832L27.4497 60.2225C26.3093 65.1099 27.3546 70.0931 30.3956 74.0223C30.7757 74.5493 31.2984 74.9327 31.726 75.4118V108.665C31.726 113.936 36.0024 118.249 41.2291 118.249H107.751C112.977 118.249 117.254 113.936 117.254 108.665V75.4118C117.681 74.9806 118.204 74.5493 118.584 74.0702C121.625 70.1411 122.718 65.1099 121.53 60.2225ZM107.323 41.5353L112.312 62.4745C112.787 64.487 112.359 66.4995 111.124 68.0807C110.459 68.9432 109.033 70.3327 106.658 70.3327C103.759 70.3327 101.241 67.9848 100.908 64.8703L98.1524 41.5832L107.323 41.5353ZM79.2413 41.5832H88.5543L91.1201 63.2412C91.3577 65.1099 90.7875 66.9786 89.5521 68.3682C88.5068 69.614 86.9863 70.3327 85.0382 70.3327C81.8547 70.3327 79.2413 67.5057 79.2413 64.0557V41.5832ZM57.8119 63.2412L60.4253 41.5832H69.7383V64.0557C69.7383 67.5057 67.1249 70.3327 63.6088 70.3327C61.9933 70.3327 60.5203 69.614 59.3799 68.3682C58.1921 66.9786 57.6219 65.1099 57.8119 63.2412ZM36.6676 62.4745L41.4667 41.5832H50.8272L48.0713 64.8703C47.6912 67.9848 45.2204 70.3327 42.3219 70.3327C39.9937 70.3327 38.5207 68.9432 37.903 68.0807C36.6201 66.5474 36.1925 64.487 36.6676 62.4745ZM41.2291 108.665V79.7722C41.6092 79.8201 41.9418 79.9159 42.3219 79.9159C46.4558 79.9159 50.2095 78.1909 52.9654 75.3639C55.8163 78.2389 59.6175 79.9159 63.9414 79.9159C68.0752 79.9159 71.7814 78.1909 74.5373 75.4597C77.3407 78.1909 81.1419 79.9159 85.4183 79.9159C89.4096 79.9159 93.2108 78.2389 96.0617 75.3639C98.8176 78.1909 102.571 79.9159 106.705 79.9159C107.085 79.9159 107.418 79.8201 107.798 79.7722V108.665H41.2291Z" fill="white"/>
</svg>
