<svg width="150" height="150" viewBox="0 0 150 150" fill="none" xmlns="http://www.w3.org/2000/svg">
<path d="M62.4564 80.7368C71.6988 80.7368 79.1847 73.2942 79.1847 64.1053C79.1847 54.9163 71.6988 47.4737 62.4564 47.4737C53.2141 47.4737 45.7282 54.9163 45.7282 64.1053C45.7282 73.2942 53.2141 80.7368 62.4564 80.7368ZM62.4564 55.7895C67.0567 55.7895 70.8206 59.5316 70.8206 64.1053C70.8206 68.6789 67.0567 72.4211 62.4564 72.4211C57.8562 72.4211 54.0923 68.6789 54.0923 64.1053C54.0923 59.5316 57.8562 55.7895 62.4564 55.7895ZM62.4564 89.0526C51.2904 89.0526 29 94.6242 29 105.684V114H95.9129V105.684C95.9129 94.6242 73.6225 89.0526 62.4564 89.0526ZM37.3641 105.684C38.2842 102.691 51.2067 97.3684 62.4564 97.3684C73.748 97.3684 86.7124 102.732 87.5488 105.684H37.3641ZM87.8833 55.9974C91.3963 60.9037 91.3963 67.2653 87.8833 72.1716L94.9092 79.1984C103.357 70.7995 103.357 58.1179 94.9092 48.9705L87.8833 55.9974ZM108.752 35L101.935 41.7774C113.519 54.3342 113.519 73.2111 101.935 86.4332L108.752 93.2105C125.062 77.0363 125.104 51.8395 108.752 35Z" fill="white"/>
</svg>
