<?xml version="1.0" encoding="utf-8"?>
<!-- Generator: Adobe Illustrator 27.7.0, SVG Export Plug-In . SVG Version: 6.00 Build 0)  -->
<svg version="1.1" id="Layer_1" xmlns="http://www.w3.org/2000/svg" xmlns:xlink="http://www.w3.org/1999/xlink" x="0px" y="0px"
	 viewBox="0 0 152 152" style="enable-background:new 0 0 152 152;" xml:space="preserve">
<style type="text/css">
	.st0{fill:#FFFFFF;}
</style>
<path class="st0" d="M101,67.1c-0.7-1.5-2.3-2.5-4-2.5h-6c-1.3,0-2.5-0.6-3.3-1.5c-0.8-1-2-1.5-3.3-1.5H64.8c-1.4,0-2.8,0.6-3.9,1.5
	c-1,1-2.4,1.5-3.9,1.5h-4.6c-1.6,0-3.2,0.8-4.1,2.2c-0.5,0.8-0.8,1.8-0.8,2.7v14.8c0,1,0.4,2,1.2,2.8c0.7,0.7,1.6,1,2.6,1h10.4
	c0.6,0,1.1,0.1,1.7,0.2c2.6,0.8,4.3,3.2,4.2,5.9l-1.2,33c-0.1,3.4,2.6,6.2,6,6.2H75c3.4,0,6.1-2.8,6-6.2l-1-32.8
	c-0.1-2.8,1.8-5.4,4.6-6l1.1-0.3c0.5-0.1,0.9-0.2,1.4-0.2h8c1.7,0,3.3-0.7,4.5-2l0.3-0.3c1-1.1,1.5-2.5,1.5-4V69
	C101.4,68.3,101.3,67.7,101,67.1z M82.6,78.4c0,1.4-0.8,2.7-2,3.5l-4.1,2.4c-1.2,0.7-2.8,0.7-4,0l-4.1-2.4c-1.2-0.7-2-2-2-3.5v-4.7
	c0-1.4,0.8-2.7,2-3.5l4.1-2.4c1.2-0.7,2.8-0.7,4,0l4.1,2.4c1.2,0.7,2,2,2,3.5V78.4z"/>
<path class="st0" d="M100.6,101.9c-6.6,6.7-15.9,10.8-26.1,10.8s-19.4-4.1-26.1-10.8l8.7-8.7c4.4,4.5,10.6,7.2,17.4,7.2
	c6.8,0,12.9-2.8,17.4-7.1L100.6,101.9z M100.6,50.1c-6.6-6.7-15.9-10.8-26.1-10.8s-19.4,4.1-26.1,10.8l8.7,8.7
	c4.4-4.5,10.6-7.2,17.4-7.2c6.8,0,12.9,2.7,17.4,7.1L100.6,50.1z M74.5,27.1c13.6,0,25.9,5.5,34.8,14.4l8.7-8.7
	c-11.1-11.1-26.5-17.9-43.5-17.9S42.1,21.7,31,32.8l8.7,8.7C48.6,32.6,60.9,27.1,74.5,27.1z M39.7,110.5l-8.7,8.7
	c11.1,11.1,26.5,17.9,43.5,17.9s32.4-6.8,43.5-17.9l-8.7-8.7c-8.9,8.9-21.2,14.4-34.8,14.4S48.6,119.4,39.7,110.5z"/>
</svg>
