<svg width="150" height="150" viewBox="0 0 150 150" fill="none" xmlns="http://www.w3.org/2000/svg">
<path d="M108.832 90.0328V50.7239C108.832 40.1038 100.288 31.502 89.7384 31.502C79.1891 31.502 70.6446 40.1038 70.6446 50.7239V98.7787C70.6446 104.065 66.3485 108.39 61.0977 108.39C55.8469 108.39 51.5508 104.065 51.5508 98.7787V59.4699C57.088 57.4516 61.0977 52.1655 61.0977 45.9184C61.0977 37.9413 54.7013 31.502 46.7774 31.502C38.8535 31.502 32.457 37.9413 32.457 45.9184C32.457 52.1655 36.4667 57.4516 42.0039 59.4699V98.7787C42.0039 109.399 50.5484 118.001 61.0977 118.001C71.647 118.001 80.1915 109.399 80.1915 98.7787V50.7239C80.1915 45.4379 84.4876 41.1129 89.7384 41.1129C94.9892 41.1129 99.2853 45.4379 99.2853 50.7239V90.0328C93.7481 92.003 89.7384 97.289 89.7384 103.584C89.7384 111.561 96.1348 118.001 104.059 118.001C111.983 118.001 118.379 111.561 118.379 103.584C118.379 97.3371 114.369 92.0511 108.832 90.0328Z" fill="white"/>
</svg>
