<svg width="152" height="152" viewBox="0 0 152 152" fill="none" xmlns="http://www.w3.org/2000/svg">
<path d="M117.7 75.0006C117.7 71.1006 115.9 67.3006 112.9 64.7006L109.7 62.0006V56.6006L93.7 65.8006H80.9C77.4 65.8006 74.5 68.5006 74.5 71.9006V78.0006C74.5 81.4006 77.4 84.1006 80.9 84.1006H84.1V96.3006H90.5V84.2006H93.7L109.7 93.4006V87.9006L112.9 85.2006C116 82.7006 117.7 78.9006 117.7 75.0006Z" fill="white"/>
<path d="M133.398 94.6002C131.498 93.3002 129.398 91.7002 127.298 90.2002L123.198 87.2002C121.898 88.9002 120.598 90.5002 119.398 92.1002C121.498 93.6002 124.098 95.5002 126.498 97.2002L129.598 99.4002C130.198 98.6002 130.898 97.8002 131.498 97.0002C132.098 96.2002 132.698 95.4002 133.398 94.6002Z" fill="white"/>
<path d="M138.499 71.9004H125.699V78.0004H138.499V71.9004Z" fill="white"/>
<path d="M119.301 57.8004C119.901 58.6004 120.601 59.4004 121.201 60.2004C121.901 61.1004 122.501 61.9004 123.201 62.7004L126.401 60.4004C128.801 58.7004 131.301 56.9004 133.501 55.3004C132.901 54.5004 132.201 53.7004 131.601 52.8004C130.901 52.0004 130.301 51.1004 129.701 50.4004C127.901 51.7004 125.801 53.2004 123.801 54.6004L119.301 57.8004Z" fill="white"/>
<path d="M80.1016 100.4V88.2C74.7016 87.8 70.5016 83.4 70.5016 78.1V72C70.5016 66.4 75.2016 61.9 80.9016 61.9H89.9016L90.4016 56.9L76.5016 53.8L69.2016 41.6L56.0016 47.1L42.9016 41.5L35.6016 53.7L21.7016 56.8L23.0016 70.9L13.6016 81.6L23.0016 92.2L21.7016 106.3L35.6016 109.4L42.9016 121.6L56.0016 116L69.1016 121.6L76.4016 109.4L90.3016 106.3L89.8016 100.6H80.1016V100.4ZM59.9016 100.6H52.2016V93H59.9016V100.6ZM59.9016 85.3H52.2016V62.4H59.9016V85.3Z" fill="white"/>
</svg>
