<svg width="150" height="150" viewBox="0 0 150 150" fill="none" xmlns="http://www.w3.org/2000/svg">
<path d="M65.3332 47.7205L60.4457 42.833L55.5581 47.7205L50.6706 42.833L45.783 47.7205L40.8955 42.833L36.008 47.7205L31.1204 42.833L26.2329 47.7205L21.3454 42.833V88.45H11.5703V98.2251C11.5703 103.634 15.9365 108 21.3454 108H60.4457C65.8545 108 70.2207 103.634 70.2207 98.2251V42.833L65.3332 47.7205ZM50.6706 101.483H21.3454C19.5533 101.483 18.087 100.017 18.087 98.2251V94.9667H50.6706V101.483ZM63.704 98.2251C63.704 100.017 62.2377 101.483 60.4457 101.483C58.6536 101.483 57.1873 100.017 57.1873 98.2251V88.45H27.8621V52.6081H63.704V98.2251Z" fill="white"/>
<path d="M51.3119 59.125H31.7617V65.6417H51.3119V59.125Z" fill="white"/>
<path d="M61.0831 59.125H54.5664V65.6417H61.0831V59.125Z" fill="white"/>
<path d="M51.3119 68.8994H31.7617V75.4161H51.3119V68.8994Z" fill="white"/>
<path d="M61.0831 68.8994H54.5664V75.4161H61.0831V68.8994Z" fill="white"/>
<path d="M127.863 62.9542L130.264 75.027H74.555L76.9562 62.9542H127.863ZM134.427 42.833H70.2157V50.8815H134.427V42.833ZM134.427 54.9057L67.6657 54.6268L66.3907 75.027L67.0282 104.033L61.6094 107.858L110.414 107.221V83.0755H126.422V107.221H134.427V83.0755H138.429V75.027L134.427 54.9057ZM78.397 99.1725V83.0755H102.41V99.1725H78.397Z" fill="white"/>
</svg>
