<svg width="150" height="150" viewBox="0 0 150 150" fill="none" xmlns="http://www.w3.org/2000/svg">
<path d="M75 32C51.2544 32 32 51.2544 32 75C32 98.7456 51.2544 118 75 118C78.9656 118 82.1667 114.799 82.1667 110.833C82.1667 108.97 81.45 107.298 80.3033 106.008C79.2044 104.766 78.4878 103.093 78.4878 101.278C78.4878 97.3122 81.6889 94.1111 85.6544 94.1111H94.1111C107.298 94.1111 118 83.4089 118 70.2222C118 49.1044 98.7456 32 75 32ZM48.7222 75C44.7567 75 41.5556 71.7989 41.5556 67.8333C41.5556 63.8678 44.7567 60.6667 48.7222 60.6667C52.6878 60.6667 55.8889 63.8678 55.8889 67.8333C55.8889 71.7989 52.6878 75 48.7222 75ZM63.0556 55.8889C59.09 55.8889 55.8889 52.6878 55.8889 48.7222C55.8889 44.7567 59.09 41.5556 63.0556 41.5556C67.0211 41.5556 70.2222 44.7567 70.2222 48.7222C70.2222 52.6878 67.0211 55.8889 63.0556 55.8889ZM86.9444 55.8889C82.9789 55.8889 79.7778 52.6878 79.7778 48.7222C79.7778 44.7567 82.9789 41.5556 86.9444 41.5556C90.91 41.5556 94.1111 44.7567 94.1111 48.7222C94.1111 52.6878 90.91 55.8889 86.9444 55.8889ZM101.278 75C97.3122 75 94.1111 71.7989 94.1111 67.8333C94.1111 63.8678 97.3122 60.6667 101.278 60.6667C105.243 60.6667 108.444 63.8678 108.444 67.8333C108.444 71.7989 105.243 75 101.278 75Z" fill="white"/>
</svg>
