<svg width="150" height="150" viewBox="0 0 150 150" fill="none" xmlns="http://www.w3.org/2000/svg">
<path d="M78.6382 87.894L68.0164 77.352L68.1418 77.226C75.4182 69.078 80.6036 59.712 83.6564 49.8H95.9091V41.4H66.6364V33H58.2727V41.4H29V49.758H75.7109C72.9091 57.864 68.4764 65.55 62.4545 72.27C58.5655 67.944 55.3455 63.198 52.7945 58.2H44.4309C47.4836 65.046 51.6655 71.514 56.8927 77.352L35.6073 98.436L41.5455 104.4L62.4545 83.4L75.46 96.462L78.6382 87.894ZM102.182 66.6H93.8182L75 117H83.3636L88.0473 104.4H107.911L112.636 117H121L102.182 66.6ZM91.2255 96L98 77.814L104.775 96H91.2255Z" fill="white"/>
</svg>
