<svg width="150" height="150" viewBox="0 0 150 150" fill="none" xmlns="http://www.w3.org/2000/svg">
<path d="M100.36 43.9707C94.2585 38.892 86.6952 35.5671 78.3281 34.7998V42.1439C84.6491 42.8381 90.4221 45.3592 95.172 49.1591L100.36 43.9707Z" fill="white"/>
<path d="M71.0204 42.1439V34.7998C62.6533 35.5306 55.0901 38.892 48.9883 43.9707L54.1766 49.1591C58.9265 45.3592 64.6994 42.8381 71.0204 42.1439Z" fill="white"/>
<path d="M49.0272 54.3104L43.8389 49.1221C38.7602 55.2238 35.4353 62.7871 34.668 71.1542H42.012C42.7062 64.8332 45.2273 59.0603 49.0272 54.3104Z" fill="white"/>
<path d="M107.339 71.1542H114.683C113.916 62.7871 110.591 55.2238 105.513 49.1221L100.324 54.3104C104.124 59.0603 106.645 64.8332 107.339 71.1542Z" fill="white"/>
<path d="M56.4062 74.8079L68.9752 80.5077L74.675 93.0766L80.3749 80.5077L92.9438 74.8079L80.3749 69.108L74.675 56.5391L68.9752 69.108L56.4062 74.8079Z" fill="white"/>
<path d="M74.6757 107.692C63.3125 107.692 53.3012 101.883 47.4187 93.0775H56.4069V85.7699H34.4844V107.692H41.7919V97.8273C49.0629 108.204 61.0472 115 74.6757 115C92.4695 115 107.56 103.418 112.821 87.3776L105.66 85.7334C101.165 98.485 88.9984 107.692 74.6757 107.692Z" fill="white"/>
</svg>
