<svg width="362" height="57" viewBox="0 0 362 57" fill="none" xmlns="http://www.w3.org/2000/svg">
<path d="M358.101 0.517578C357.121 0.517578 356.301 0.867574 355.611 1.56757C354.931 2.26757 354.591 3.10758 354.591 4.08758V46.7876L321.311 1.45757C320.871 0.837573 320.291 0.527573 319.551 0.527573H312.461V55.7776H315.971C316.941 55.7776 317.771 55.4276 318.461 54.7276C319.141 54.0276 319.481 53.1876 319.481 52.2076V9.50758L352.691 54.8376C353.131 55.4576 353.711 55.7676 354.441 55.7676H361.611V0.517578H358.101Z" fill="white"/>
<path d="M241.982 55.7672C242.522 55.7672 242.962 55.5872 243.302 55.2272C243.642 54.8672 243.812 54.4272 243.812 53.9072V27.2472C243.812 23.3172 244.822 19.7072 246.842 16.3972C248.862 13.0872 251.612 10.5372 255.072 8.72721L256.792 8.1872C261.692 7.0172 266.792 6.9772 271.712 8.0672L272.112 8.15721C272.592 8.32721 273.032 8.4972 273.452 8.6472C273.502 8.6672 273.542 8.69721 273.582 8.72721C277.042 10.5372 279.792 13.0972 281.812 16.3972C283.832 19.7072 284.842 23.3172 284.842 27.2472V53.9072C284.842 54.4272 285.012 54.8672 285.352 55.2272C285.692 55.5872 286.112 55.7672 286.592 55.7672H291.562V27.2472C291.562 24.2472 291.102 21.3572 290.172 18.5672C289.242 15.7772 287.942 13.2172 286.262 10.8972C284.582 8.5672 282.572 6.5472 280.232 4.8172C277.892 3.0872 275.312 1.77721 272.482 0.907206L271.162 0.517206L270.982 0.4872C266.742 -0.1328 262.442 -0.162794 258.202 0.407206L257.412 0.517206L256.172 0.907206C253.292 1.83721 250.672 3.1672 248.312 4.8972C245.942 6.6272 243.922 8.66721 242.242 11.0172C240.562 13.3672 239.272 15.9472 238.362 18.7672C237.462 21.5772 237.032 24.5372 237.082 27.6372V55.7672H241.982ZM271.732 8.0272C271.672 8.0072 271.632 7.9872 271.612 7.9872C271.632 7.9872 271.662 8.0072 271.732 8.0272Z" fill="white"/>
<path d="M213.62 55.7278C212.45 55.7278 211.45 55.3878 210.62 54.7178C209.79 54.0478 209.38 53.1878 209.38 52.1478V15.4678L187.44 53.6278C187 54.4578 186.33 55.0778 185.43 55.4978C184.53 55.9178 183.58 56.1178 182.58 56.1178C181.58 56.1178 180.63 55.9078 179.73 55.4978C178.83 55.0878 178.16 54.4578 177.72 53.6278L155.78 15.4678V52.1478C155.78 53.1878 155.37 54.0478 154.54 54.7178C153.71 55.3978 152.71 55.7278 151.54 55.7278H148.98L148.91 0.507812H152.64C154.2 0.507812 155.35 1.10781 156.08 2.29781L182.63 49.4978L209.11 2.29781C209.84 1.10781 210.99 0.507812 212.55 0.507812H216.28L216.21 55.7278H213.65H213.62Z" fill="white"/>
<path d="M122.791 0.517578C122.251 0.517578 121.811 0.697571 121.471 1.05757C121.131 1.41757 120.961 1.85757 120.961 2.37757V29.0376C120.961 32.9676 119.951 36.5776 117.931 39.8876C115.911 43.1976 113.161 45.7476 109.701 47.5576L107.981 48.0976C103.081 49.2676 97.9809 49.3076 93.0609 48.2176L92.6609 48.1276C92.1809 47.9576 91.741 47.7876 91.321 47.6376C91.271 47.6176 91.2309 47.5876 91.1909 47.5576C87.7309 45.7476 84.9809 43.1876 82.9609 39.8876C80.9409 36.5776 79.9309 32.9676 79.9309 29.0376V2.37757C79.9309 1.85757 79.761 1.41757 79.421 1.05757C79.081 0.697571 78.6609 0.517578 78.1809 0.517578H73.2109V29.0376C73.2109 32.0376 73.671 34.9276 74.601 37.7176C75.531 40.5076 76.831 43.0676 78.511 45.3876C80.191 47.7176 82.201 49.7376 84.541 51.4676C86.881 53.1976 89.461 54.5076 92.291 55.3776L93.611 55.7676L93.791 55.7976C98.031 56.4176 102.331 56.4476 106.571 55.8776L107.361 55.7676L108.601 55.3776C111.481 54.4476 114.101 53.1176 116.461 51.3876C118.831 49.6576 120.851 47.6176 122.531 45.2676C124.211 42.9176 125.501 40.3376 126.411 37.5176C127.311 34.7076 127.741 31.7476 127.691 28.6476V0.517578H122.791ZM93.041 48.2576C93.101 48.2776 93.1409 48.2976 93.1609 48.2976C93.1409 48.2976 93.111 48.2776 93.041 48.2576Z" fill="white"/>
<path d="M50.91 1.55781C50.19 0.857808 49.31 0.507812 48.28 0.507812H44.56V21.2778H7.02002V4.07781C7.02002 3.09781 6.68 2.25781 6 1.55781C5.32 0.857808 4.49001 0.507812 3.51001 0.507812H0V52.1978C0 53.1778 0.34002 54.0178 1.02002 54.7178C1.70002 55.4178 2.53001 55.7678 3.51001 55.7678H7.02002V28.0978H44.56V52.1978C44.56 53.1778 44.92 54.0178 45.64 54.7178C46.36 55.4178 47.24 55.7678 48.27 55.7678H51.99V4.07781C51.99 3.09781 51.63 2.25781 50.91 1.55781Z" fill="white"/>
</svg>
