<svg width="535" height="56" viewBox="0 0 535 56" fill="none" xmlns="http://www.w3.org/2000/svg">
<path d="M533.641 33.7598C532.841 31.8798 531.741 30.2498 530.351 28.8598C528.961 27.4698 527.341 26.3598 525.491 25.5398C523.641 24.7198 511.051 24.2998 508.961 24.2998H507.781C507.541 24.2498 507.291 24.2198 507.021 24.2198C505.851 24.2198 497.031 23.9998 495.981 23.5598C494.931 23.1198 494.031 22.5198 493.271 21.7498C492.511 20.9798 491.901 20.0598 491.441 19.0098C490.981 17.9598 490.751 16.8398 490.751 15.6498C490.751 14.4598 490.981 13.3598 491.441 12.3298C491.901 11.2998 492.511 10.3998 493.271 9.62981C494.031 8.85981 494.931 8.23982 495.981 7.77982C497.031 7.31982 498.141 7.08982 499.311 7.08982H529.151C530.131 7.08982 530.951 6.73981 531.641 6.04981C532.321 5.34981 532.661 4.48981 532.661 3.45981V0.219805H499.821C497.631 0.119805 495.571 0.469814 493.641 1.25981C491.711 2.05981 490.041 3.15981 488.631 4.57981C487.211 5.99981 486.091 7.65982 485.271 9.55982C484.441 11.4598 484.031 13.4998 484.031 15.6598C484.031 17.8198 484.431 19.8398 485.241 21.7198C486.041 23.5998 487.141 25.2298 488.531 26.6198C489.921 28.0098 491.541 29.1198 493.391 29.9398C495.241 30.7598 504.931 31.1798 507.021 31.1798H508.221C508.391 31.2098 508.561 31.2498 508.751 31.2598C510.161 31.2598 522.031 31.5198 523.131 32.0298C524.231 32.5398 525.141 33.2098 525.871 34.0398C526.601 34.8598 527.161 35.7798 527.551 36.7798C527.941 37.7798 528.141 38.7998 528.141 39.8298C528.141 40.9598 527.921 42.0398 527.481 43.0698C527.041 44.0998 526.461 44.9998 525.721 45.7698C524.991 46.5398 524.141 47.1598 523.161 47.6198C522.181 48.0798 521.141 48.3398 520.021 48.3898H487.551C486.571 48.3898 485.751 48.7398 485.061 49.4298C484.381 50.1198 484.041 50.9598 484.041 51.9398V55.2598H520.611C522.661 55.1098 524.551 54.5898 526.281 53.7198C528.011 52.8398 529.511 51.7098 530.781 50.3198C532.051 48.9298 533.051 47.3398 533.781 45.5298C534.511 43.7298 534.881 41.8198 534.881 39.8198C534.881 37.6598 534.481 35.6398 533.671 33.7598H533.641Z" fill="white"/>
<path d="M439.272 7.09875C436.442 7.09875 433.782 7.63876 431.302 8.72876C428.812 9.80876 426.632 11.2988 424.752 13.1788C422.872 15.0588 421.402 17.2588 420.322 19.7588C419.252 22.2588 418.712 24.9588 418.712 27.8488C418.712 30.7388 419.252 33.3588 420.322 35.8588C421.392 38.3588 422.872 40.5588 424.752 42.4388C426.632 44.3188 428.812 45.8088 431.302 46.8888C433.792 47.9688 436.442 48.5188 439.272 48.5188H459.312C460.282 48.5188 461.112 48.8688 461.802 49.5588C462.482 50.2588 462.822 51.0988 462.822 52.0688V55.3988H437.882C434.272 55.1888 430.892 54.3288 427.752 52.8088C424.602 51.2888 421.862 49.2888 419.522 46.8088C417.182 44.3288 415.342 41.4688 414.002 38.2188C412.662 34.9688 411.992 31.5088 411.992 27.8488C411.992 24.1888 412.662 20.6488 414.002 17.3988C415.342 14.1488 417.182 11.2888 419.522 8.80876C421.862 6.32876 424.602 4.32876 427.752 2.80876C430.892 1.28876 434.272 0.41875 437.882 0.21875H462.822V3.54875C462.822 4.52875 462.482 5.36876 461.802 6.06876C461.122 6.76876 460.292 7.10876 459.312 7.10876H439.272V7.09875Z" fill="white"/>
<path d="M387.26 55.26C386.28 55.26 385.44 54.91 384.76 54.21C384.07 53.51 383.73 52.67 383.73 51.69V0H387.26C388.24 0 389.08 0.349988 389.76 1.04999C390.45 1.74999 390.79 2.58999 390.79 3.56999V55.26H387.26Z" fill="white"/>
<path d="M362.531 3.56999C362.531 2.58999 362.201 1.74999 361.541 1.04999C360.881 0.349988 360.061 0 359.071 0H313.141V3.32999C313.141 4.30999 313.481 5.14999 314.171 5.84999C314.861 6.54999 315.691 6.89999 316.671 6.89999H334.331V51.69C334.331 52.67 334.671 53.51 335.361 54.21C336.051 54.91 336.881 55.26 337.861 55.26H341.391V6.89999H362.511V3.56999H362.531Z" fill="white"/>
<path d="M293.25 27.8684C293.25 31.6484 292.49 35.2184 290.96 38.5884C289.43 41.9584 287.36 44.8884 284.75 47.4084C282.13 49.9184 279.08 51.8984 275.59 53.3484C272.1 54.7984 268.35 55.5184 264.37 55.5184C260.39 55.5184 256.63 54.7984 253.11 53.3484C249.59 51.8984 246.52 49.9184 243.91 47.4084C241.29 44.8984 239.22 41.9584 237.7 38.5884C236.17 35.2184 235.41 31.6484 235.41 27.8684C235.41 24.0884 236.17 20.4384 237.7 17.0684C239.23 13.7084 241.3 10.7684 243.91 8.25844C246.52 5.74844 249.59 3.76844 253.11 2.31844C256.63 0.868436 260.38 0.148438 264.37 0.148438C268.36 0.148438 272.1 0.878436 275.59 2.31844C279.08 3.76844 282.14 5.74844 284.75 8.25844C287.36 10.7684 289.44 13.7084 290.96 17.0684C292.49 20.4384 293.25 24.0384 293.25 27.8684ZM264.36 7.05844C261.36 7.05844 258.54 7.59843 255.89 8.68843C253.25 9.77843 250.93 11.2684 248.94 13.1584C246.95 15.0484 245.38 17.2484 244.24 19.7584C243.1 22.2684 242.53 24.9784 242.53 27.8784C242.53 30.7784 243.1 33.4084 244.24 35.9184C245.38 38.4284 246.95 40.6284 248.94 42.5184C250.93 44.4084 253.25 45.8984 255.89 46.9884C258.53 48.0784 261.35 48.6184 264.36 48.6184C267.37 48.6184 270.19 48.0784 272.83 46.9884C275.47 45.8984 277.77 44.4084 279.74 42.5184C281.71 40.6284 283.26 38.4284 284.4 35.9184C285.54 33.4084 286.11 30.7284 286.11 27.8784C286.11 25.0284 285.54 22.2784 284.4 19.7584C283.26 17.2484 281.71 15.0484 279.74 13.1584C277.77 11.2684 275.47 9.77843 272.83 8.68843C270.19 7.59843 267.37 7.05844 264.36 7.05844Z" fill="white"/>
<path d="M213.181 15.7691C213.181 17.2091 213.021 18.5191 212.701 19.6791C212.381 20.8391 211.991 21.8691 211.531 22.7791C211.071 23.6791 210.591 24.4391 210.101 25.0591C209.611 25.6791 209.201 26.1991 208.861 26.6091C211.101 28.2591 212.891 30.1291 214.241 32.2191C215.581 34.3091 216.251 36.8791 216.251 39.9191C216.251 41.9291 215.881 43.8291 215.151 45.6091C214.421 47.3891 213.431 48.9791 212.191 50.3691C210.951 51.7591 209.481 52.8991 207.801 53.7691C206.121 54.6491 204.301 55.1891 202.351 55.3991H148.881V52.0691C148.881 51.0891 149.221 50.2491 149.901 49.5591C150.581 48.8591 151.411 48.5191 152.391 48.5191H201.471C202.541 48.4691 203.571 48.2091 204.541 47.7491C205.511 47.2891 206.371 46.6491 207.101 45.8491C207.831 45.0491 208.421 44.1491 208.851 43.1391C209.291 42.1291 209.511 41.0591 209.511 39.9291C209.511 38.7991 209.281 37.6391 208.821 36.5991C208.361 35.5691 207.751 34.6691 206.991 33.8891C206.231 33.1191 205.331 32.4991 204.281 32.0291C203.231 31.5691 202.121 31.3291 200.951 31.3291H199.121C198.631 31.3291 197.791 31.3191 196.601 31.2891C195.411 31.2591 193.491 31.2491 190.861 31.2491H152.381C151.401 31.2491 150.581 30.8991 149.891 30.2091C149.211 29.5091 148.871 28.6791 148.871 27.6991V24.3691H197.811C198.981 24.3691 200.091 24.1391 201.141 23.6691C202.191 23.2091 203.101 22.5891 203.881 21.8091C204.661 21.0391 205.271 20.1291 205.711 19.0991C206.151 18.0691 206.371 16.9591 206.371 15.7691C206.371 14.5791 206.151 13.4591 205.711 12.3991C205.271 11.3391 204.661 10.4291 203.881 9.64914C203.101 8.87914 202.191 8.25914 201.141 7.78914C200.091 7.32914 198.981 7.08914 197.811 7.08914H152.381C151.401 7.08914 150.581 6.73913 149.891 6.04913C149.211 5.34913 148.871 4.51914 148.871 3.52914V0.199142H195.431C196.381 0.199142 197.091 0.189134 197.551 0.159134C198.011 0.129134 198.441 0.119141 198.831 0.119141V0.199142C200.831 0.349142 202.691 0.859137 204.431 1.70914C206.161 2.55914 207.671 3.67913 208.961 5.07913C210.251 6.46913 211.281 8.08914 212.031 9.91914C212.791 11.7491 213.161 13.6991 213.161 15.7591L213.181 15.7691Z" fill="white"/>
<path d="M129.371 27.8684C129.371 31.6484 128.611 35.2184 127.081 38.5884C125.551 41.9584 123.481 44.8884 120.871 47.4084C118.251 49.9184 115.201 51.8984 111.711 53.3484C108.221 54.7984 104.471 55.5184 100.491 55.5184C96.5113 55.5184 92.7513 54.7984 89.2313 53.3484C85.7113 51.8984 82.6412 49.9184 80.0312 47.4084C77.4113 44.8984 75.3413 41.9584 73.8213 38.5884C72.2913 35.2184 71.5312 31.6484 71.5312 27.8684C71.5312 24.0884 72.2913 20.4384 73.8213 17.0684C75.3513 13.7084 77.4213 10.7684 80.0312 8.25844C82.6412 5.74844 85.7113 3.76844 89.2313 2.31844C92.7513 0.868436 96.5013 0.148438 100.491 0.148438C104.481 0.148438 108.221 0.878436 111.711 2.31844C115.201 3.76844 118.261 5.74844 120.871 8.25844C123.481 10.7684 125.561 13.7084 127.081 17.0684C128.611 20.4384 129.371 24.0384 129.371 27.8684ZM100.481 7.05844C97.4813 7.05844 94.6613 7.59843 92.0113 8.68843C89.3713 9.77843 87.0512 11.2684 85.0612 13.1584C83.0712 15.0484 81.5013 17.2484 80.3613 19.7584C79.2213 22.2684 78.6512 24.9784 78.6512 27.8784C78.6512 30.7784 79.2213 33.4084 80.3613 35.9184C81.5013 38.4284 83.0712 40.6284 85.0612 42.5184C87.0512 44.4084 89.3713 45.8984 92.0113 46.9884C94.6513 48.0784 97.4713 48.6184 100.481 48.6184C103.491 48.6184 106.311 48.0784 108.951 46.9884C111.591 45.8984 113.891 44.4084 115.861 42.5184C117.831 40.6284 119.381 38.4284 120.521 35.9184C121.661 33.4084 122.231 30.7284 122.231 27.8784C122.231 25.0284 121.661 22.2784 120.521 19.7584C119.381 17.2484 117.831 15.0484 115.861 13.1584C113.891 11.2684 111.591 9.77843 108.951 8.68843C106.311 7.59843 103.491 7.05844 100.481 7.05844Z" fill="white"/>
<path d="M46.7 48.7298C45.99 47.7998 45.26 46.8698 44.51 45.9398C43.75 45.0098 42.85 43.8798 41.8 42.5398C40.75 41.1998 39.5 39.5998 38.03 37.7398C39.91 40.1298 36.8 36.1298 32.54 30.9298C34.73 30.9798 40.59 30.5798 42.49 29.7798C44.39 28.9798 46.04 27.8698 47.43 26.4498C48.82 25.0298 49.93 23.3798 50.76 21.4998C51.59 19.6198 52 17.6198 52 15.4998C52 13.3798 51.59 11.3098 50.76 9.42976C49.93 7.54976 48.8 5.90976 47.36 4.51976C45.92 3.12976 44.25 2.02977 42.35 1.22977C40.45 0.429767 34.6 0.0897705 32.4 0.139771H4.45999C4.16999 0.0597705 3.88 0.00976562 3.56 0.00976562H0.0500183V0.129761H0V2.13977C0 2.37977 0.0200183 2.59976 0.0500183 2.82976V51.6998C0.0500183 52.6798 0.390007 53.5198 1.07001 54.2198C1.75001 54.9198 2.58 55.2698 3.56 55.2698H7.07001V7.09976H32.76C33.93 7.09976 38.84 7.28977 39.89 7.72977C40.94 8.16977 41.85 8.75977 42.63 9.50977C43.41 10.2598 44.03 11.1498 44.5 12.1798C44.96 13.2098 45.19 14.3198 45.19 15.5098C45.19 16.6998 44.96 17.8098 44.5 18.8398C44.04 19.8698 43.41 20.7598 42.63 21.5098C41.85 22.2598 40.94 22.8598 39.89 23.3298C38.84 23.7898 33.93 24.0598 32.76 24.0598H18.06C22.59 29.6798 26.31 34.2998 29.21 37.9098C32.11 41.5198 34.43 44.4098 36.16 46.5798C37.89 48.7498 39.17 50.3498 40 51.3798C40.83 52.4098 41.41 53.1298 41.76 53.5498C42.1 53.9598 42.32 54.2198 42.42 54.3198C42.52 54.4198 42.71 54.6598 43.01 55.0198L43.16 54.8698C43.84 55.2298 44.62 55.4098 45.5 55.4098H52.01C50.84 53.9698 49.84 52.7298 49.01 51.6998C48.18 50.6698 47.41 49.6898 46.71 48.7598L46.7 48.7298Z" fill="white"/>
</svg>
